#!OML:ASF C:\ViconDB\ViconDB\414\Spring2016\041811\Spring2016.ASF
:FULLY-SPECIFIED
:DEGREES
308
root 9.5705 17.3054 6.08509 -109.419 -2.72396 131.249
lowerback 27.4701 0.863843 24.5813
upperback 2.45841 8.08203 12.2001
thorax -9.85645 2.27065 -1.73593
lowerneck -10.5617 -15.1248 -25.7201
upperneck 3.5658 -21.388 32.7719
head 10.0358 -9.10633 12.5821
rclavicle -8.90555e-014 -9.22361e-014
rhumerus 40.9712 -52.3093 -33.8597
rradius 31.7313
rwrist 21.1334
rhand -47.9279 -27.7261
rfingers 7.12502
rthumb -20.5991 -56.6531
lclavicle -8.90555e-014 -9.22361e-014
lhumerus 23.9343 43.8004 -8.82677
lradius 46.7664
lwrist -4.63537
lhand -46.4037 31.5593
lfingers 7.12502
lthumb -19.1339 60.6381
rfemur 219.558 42.3259 -167.316
rtibia 51.8461
rfoot -16.156 -61.7689
rtoes -9.80536
lfemur 6.79775 3.77867 -8.93939
ltibia 7.75993
lfoot 28.2867 8.11174
ltoes -12.7076
309
root 9.6017 17.341 5.77602 -108.448 -0.982736 130.886
lowerback 27.7598 0.669863 25.2142
upperback 2.38234 8.13753 12.0796
thorax -9.9421 2.25921 -2.14925
lowerneck -11.1848 -14.9533 -25.3547
upperneck 3.63569 -20.8721 32.2576
head 9.86705 -8.82195 12.4056
rclavicle -1.52667e-013 -9.22361e-014
rhumerus 44.265 -52.7535 -35.3668
rradius 31.3722
rwrist 21.4194
rhand -47.8592 -27.1546
rfingers 7.12502
rthumb -20.5331 -56.0887
lclavicle -1.52667e-013 -9.22361e-014
lhumerus 26.3159 44.1515 -7.41031
lradius 46.736
lwrist -4.56124
lhand -46.8495 31.8135
lfingers 7.12502
lthumb -19.5626 60.8493
rfemur 220.702 42.1856 -168.247
rtibia 50.6621
rfoot -16.605 -61.0648
rtoes -11.2855
lfemur 9.04885 3.82042 -8.27205
ltibia 5.29289
lfoot 30.5128 9.35805
ltoes -12.5173
310
root 9.63214 17.3674 5.47083 -107.476 0.85536 130.378
lowerback 27.9452 0.418135 25.7876
upperback 2.28247 8.07901 11.8217
thorax -9.95758 2.21752 -2.52837
lowerneck -11.9234 -14.8129 -25.03
upperneck 3.73657 -20.4288 31.8901
head 9.79223 -8.55775 12.2782
rclavicle 7.31528e-014 3.49861e-014
rhumerus 46.7876 -52.4853 -36.0623
rradius 31.2561
rwrist 21.5025
rhand -48.429 -26.8277
rfingers 7.12502
rthumb -21.0806 -55.7018
lclavicle 7.31528e-014 3.49861e-014
lhumerus 28.7183 44.4692 -6.12609
lradius 46.5441
lwrist -5.05108
lhand -46.9996 32.1631
lfingers 7.12502
lthumb -19.7069 61.1841
rfemur 221.777 42.0962 -169.57
rtibia 49.434
rfoot -16.6759 -60.2275
rtoes -13.3856
lfemur 12.7804 3.50645 -7.75832
ltibia -2.78299e-015
lfoot 34.4272 12.0717
ltoes -10.4687
311
root 9.66805 17.3962 5.16339 -106.394 2.95403 129.838
lowerback 28.0173 0.378278 25.865
upperback 2.18269 8.13456 11.7573
thorax -10.0789 2.23623 -2.65334
lowerneck -12.3843 -14.6644 -24.9156
upperneck 3.76133 -19.9798 31.4713
head 9.65698 -8.32466 12.177
rclavicle -2.92611e-013 -2.38542e-013
rhumerus 47.8637 -51.3325 -34.8696
rradius 30.9316
rwrist 20.8475
rhand -52.1654 -28.9445
rfingers 7.12502
rthumb -24.666 -57.3748
lclavicle -2.92611e-013 -2.38542e-013
lhumerus 31.8645 44.8221 -3.86672
lradius 46.1744
lwrist -5.34314
lhand -47.2942 31.9452
lfingers 7.12502
lthumb -19.9901 60.9369
rfemur 223.059 42.0666 -171.113
rtibia 48.0132
rfoot -16.5697 -59.4255
rtoes -14.9263
lfemur 13.5993 3.38195 -7.5077
ltibia -3.97569e-015
lfoot 36.4854 12.9579
ltoes -8.95524
312
root 9.71058 17.4217 4.85585 -105.338 5.11844 129.324
lowerback 27.9942 0.255703 25.9922
upperback 2.11674 8.06504 11.4929
thorax -10.1024 2.21653 -2.97721
lowerneck -12.7756 -14.5259 -24.5296
upperneck 3.77379 -19.6582 31.1923
head 9.54227 -8.14025 12.0566
rclavicle 2.13097e-013 -6.36111e-015
rhumerus 49.9337 -50.5683 -35.3711
rradius 30.8604
rwrist 19.4371
rhand -55.5491 -32.4392
rfingers 7.12502
rthumb -27.9052 -60.3859
lclavicle 2.13097e-013 -6.36111e-015
lhumerus 34.771 45.0923 -2.28798
lradius 45.7452
lwrist -5.9195
lhand -47.3721 31.699
lfingers 7.12502
lthumb -20.065 60.6829
rfemur 224.062 41.8217 -173.214
rtibia 46.5468
rfoot -16.552 -58.2717
rtoes -19.4976
lfemur 14.4909 3.2122 -7.25144
ltibia -1.59028e-015
lfoot 38.3547 12.6296
ltoes -8.28929
313
root 9.75845 17.4439 4.5468 -104.315 7.29163 128.992
lowerback 28.1203 0.227578 25.9102
upperback 2.13014 8.07903 11.3566
thorax -10.1379 2.2419 -3.10434
lowerneck -13.5248 -14.4377 -24.4978
upperneck 4.04532 -19.3925 31.1134
head 9.67226 -7.95078 12.0734
rclavicle 7.31528e-014 5.40694e-014
rhumerus 54.2404 -50.678 -38.7379
rradius 30.4671
rwrist 21.2731
rhand -58.4178 -36.6406
rfingers 7.12502
rthumb -30.6444 -64.1092
lclavicle 7.31528e-014 5.40694e-014
lhumerus 37.608 45.3546 -0.694494
lradius 45.2844
lwrist -6.44462
lhand -47.4636 31.8487
lfingers 7.12502
lthumb -20.153 60.8234
rfemur 224.577 41.1748 -176.037
rtibia 45.0117
rfoot -14.6361 -57.064
rtoes -23.8367
lfemur 15.5252 3.11576 -6.91001
ltibia 6.36111e-015
lfoot 39.8388 12.2588
ltoes -7.84997
314
root 9.81268 17.4664 4.23521 -103.267 9.51608 128.8
lowerback 28.2722 0.309983 25.615
upperback 2.04546 8.21035 11.2735
thorax -10.3215 2.30565 -3.12582
lowerneck -13.6897 -14.2155 -24.3919
upperneck 4.23986 -19.0084 30.7831
head 9.58026 -7.76794 12.0189
rclavicle 1.90833e-014 -1.27222e-013
rhumerus 60.3433 -50.9083 -44.4792
rradius 29.6896
rwrist 24.3922
rhand -60.8031 -41.7237
rfingers 7.12502
rthumb -32.9161 -68.7416
lclavicle 1.90833e-014 -1.27222e-013
lhumerus 39.5052 45.3406 -0.311703
lradius 45.011
lwrist -6.14433
lhand -47.3753 31.5588
lfingers 7.12502
lthumb -20.0681 60.5424
rfemur 224.455 40.028 -179.983
rtibia 43.4367
rfoot -11.1432 -55.5942
rtoes -27.8588
lfemur 16.6259 3.0738 -6.55867
ltibia -1.74931e-014
lfoot 40.7748 11.9898
ltoes -7.36806
315
root 9.86705 17.4803 3.92383 -102.247 11.7075 128.699
lowerback 28.5268 0.403708 25.338
upperback 1.95637 8.39771 11.0533
thorax -10.5209 2.39236 -3.3243
lowerneck -13.9386 -13.9945 -24.0945
upperneck 4.27433 -18.6866 30.814
head 9.5164 -7.58925 12.0569
rclavicle 6.67916e-014 1.04958e-013
rhumerus 64.6408 -50.9704 -48.7694
rradius 29.9144
rwrist 26.6937
rhand -62.8997 -50.7378
rfingers 7.12502
rthumb -34.9078 -77.3153
lclavicle 6.67916e-014 1.04958e-013
lhumerus 42.0876 45.2503 0.387431
lradius 44.4773
lwrist -6.13378
lhand -47.3393 30.8377
lfingers 7.12502
lthumb -20.0335 59.8249
rfemur 224.158 38.481 -184.627
rtibia 41.1585
rfoot -4.91457 -53.7538
rtoes -30.5963
lfemur 14.3655 3.68933 -5.82872
ltibia 6.54551
lfoot 39.0593 9.4769
ltoes -7.35263
316
root 9.92603 17.486 3.61592 -101.214 13.89 128.712
lowerback 28.8111 0.580674 24.8303
upperback 1.86729 8.62932 10.9386
thorax -10.7815 2.5012 -3.32967
lowerneck -14.2444 -13.7079 -23.7967
upperneck 4.47446 -18.2751 30.7099
head 9.46723 -7.37103 12.0655
rclavicle 3.18055e-013 1.65389e-013
rhumerus 66.6701 -50.4742 -50.4667
rradius 31.0583
rwrist 26.6731
rhand -64.1907 -59.4458
rfingers 7.12502
rthumb -36.1316 -85.7298
lclavicle 3.18055e-013 1.65389e-013
lhumerus 45.4093 45.1057 1.98146
lradius 43.7161
lwrist -6.58692
lhand -47.3683 30.3592
lfingers 7.12502
lthumb -20.0613 59.3435
rfemur 222.597 35.9091 -191.421
rtibia 38.9146
rfoot 5.59226 -51.2154
rtoes -32.4369
lfemur 13.8699 4.10444 -5.16406
ltibia 9.8248
lfoot 38.0323 7.99231
ltoes -6.23007
317
root 9.88484 17.6134 3.34882 -98.6972 17.7509 122.476
lowerback 22.4328 0.00623445 23.81
upperback 0.984218 6.00463 10.0472
thorax -9.43895 1.61246 -3.11455
lowerneck -14.8555 -13.3098 -23.3053
upperneck 4.79878 -17.7103 30.6288
head 9.45606 -7.05619 12.0822
rclavicle 0 -1.145e-013
rhumerus 68.4909 -50.0967 -51.9925
rradius 32.5354
rwrist 27.0335
rhand -64.4251 -58.0521
rfingers 7.12502
rthumb -36.3536 -84.281
lclavicle 0 -1.145e-013
lhumerus 48.7338 45.0018 3.47449
lradius 42.9975
lwrist -6.6067
lhand -47.4385 30.1177
lfingers 7.12502
lthumb -20.1288 59.0949
rfemur 224.877 43.1791 -195.053
rtibia 36.2604
rfoot 10.8599 -50.1162
rtoes -31.7442
lfemur 8.41479 -0.0453441 -8.14606
ltibia 11.7274
lfoot 38.4025 7.43586
ltoes -4.74114
318
root 9.95568 17.5835 3.04538 -97.9304 19.8413 123.064
lowerback 22.9299 0.361728 22.8052
upperback 1.11705 6.36121 10.0807
thorax -9.59685 1.81616 -2.74592
lowerneck -15.6406 -12.919 -22.7524
upperneck 5.46534 -17.2457 30.5061
head 9.60727 -6.76395 12.06
rclavicle 2.54444e-014 4.13472e-014
rhumerus 70.7494 -49.1866 -53.9631
rradius 33.3224
rwrist 27.9568
rhand -64.5488 -54.0122
rfingers 7.12502
rthumb -36.4707 -80.2117
lclavicle 2.54444e-014 4.13472e-014
lhumerus 50.7682 44.7181 3.33406
lradius 42.5108
lwrist -6.07007
lhand -47.4389 30.4496
lfingers 7.12502
lthumb -20.1292 59.4268
rfemur 222.912 40.3424 -200.506
rtibia 34.564
rfoot 20.017 -47.5607
rtoes -35.2767
lfemur 9.4552 0.153567 -7.23473
ltibia 12.5672
lfoot 38.3022 6.5283
ltoes -3.37125
319
root 10.023 17.5451 2.74939 -97.4253 22.2037 123.486
lowerback 23.4382 0.710942 21.3207
upperback 1.28237 6.59165 10.1677
thorax -9.82943 1.98564 -2.07228
lowerneck -16.1161 -12.5987 -22.4991
upperneck 6.0578 -16.9295 30.5733
head 9.78315 -6.56114 12.1496
rclavicle 1.24042e-013 5.725e-014
rhumerus 70.0594 -48.0402 -51.8322
rradius 33.902
rwrist 27.2309
rhand -64.6978 -54.2537
rfingers 7.12502
rthumb -36.6117 -80.4175
lclavicle 1.24042e-013 5.725e-014
lhumerus 52.3787 44.242 3.08088
lradius 42.1526
lwrist -5.22239
lhand -47.6114 30.559
lfingers 7.12502
lthumb -20.295 59.5186
rfemur 222.212 38.8271 -203.203
rtibia 33.2384
rfoot 26.0106 -46.0988
rtoes -38.4165
lfemur 10.9576 -0.366197 -6.88594
ltibia 12.7669
lfoot 39.0129 5.96807
ltoes -1.77807
